<?xml version="1.0" encoding="utf-8"?>
<!-- Generator: Adobe Illustrator 16.0.0, SVG Export Plug-In . SVG Version: 6.00 Build 0)  -->
<!DOCTYPE svg PUBLIC "-//W3C//DTD SVG 1.1//EN" "http://www.w3.org/Graphics/SVG/1.1/DTD/svg11.dtd">
<svg version="1.1" id="Layer_1" xmlns="http://www.w3.org/2000/svg" xmlns:xlink="http://www.w3.org/1999/xlink" x="0px" y="0px"
	 width="595.28px" height="841.89px" viewBox="0 0 595.28 841.89" enable-background="new 0 0 595.28 841.89" xml:space="preserve">
<g>
	<linearGradient id="SVGID_1_" gradientUnits="userSpaceOnUse" x1="283.8491" y1="430.7109" x2="283.8491" y2="532.2734">
		<stop  offset="0" style="stop-color:#F6871F"/>
		<stop  offset="0.2051" style="stop-color:#F58120"/>
		<stop  offset="0.5378" style="stop-color:#F37021"/>
		<stop  offset="0.9544" style="stop-color:#F04E23"/>
		<stop  offset="1" style="stop-color:#F04923"/>
	</linearGradient>
	<polygon fill="url(#SVGID_1_)" points="283.849,481.496 283.85,481.492 283.849,481.505 	"/>
	<linearGradient id="SVGID_2_" gradientUnits="userSpaceOnUse" x1="260.0952" y1="298.0093" x2="260.0952" y2="487.0926">
		<stop  offset="0" style="stop-color:#F6871F"/>
		<stop  offset="0.2051" style="stop-color:#F58120"/>
		<stop  offset="0.5378" style="stop-color:#F37021"/>
		<stop  offset="0.9544" style="stop-color:#F04E23"/>
		<stop  offset="1" style="stop-color:#F04923"/>
	</linearGradient>
	<path fill="url(#SVGID_2_)" d="M267.692,437.063L265.11,344.1c-0.062-2.871-2.326-5.126-5.153-5.126
		c-2.835,0-5.101,2.257-5.155,5.135l-2.304,92.95l2.306,44.726c0.053,2.849,2.318,5.099,5.153,5.099c2.827,0,5.091-2.25,5.153-5.131
		v0.037L267.692,437.063z"/>
	<linearGradient id="SVGID_3_" gradientUnits="userSpaceOnUse" x1="241.8853" y1="298.0093" x2="241.8852" y2="487.0927">
		<stop  offset="0" style="stop-color:#F6871F"/>
		<stop  offset="0.2051" style="stop-color:#F58120"/>
		<stop  offset="0.5378" style="stop-color:#F37021"/>
		<stop  offset="0.9544" style="stop-color:#F04E23"/>
		<stop  offset="1" style="stop-color:#F04923"/>
	</linearGradient>
	<path fill="url(#SVGID_3_)" d="M249.35,437.055l-2.838-96.479c-0.071-2.666-2.17-4.753-4.781-4.753
		c-2.622,0-4.724,2.09-4.785,4.758l-2.524,96.474l2.527,45.009c0.059,2.643,2.16,4.737,4.782,4.737c2.611,0,4.71-2.095,4.781-4.76
		v0.031L249.35,437.055z"/>
	<linearGradient id="SVGID_4_" gradientUnits="userSpaceOnUse" x1="283.8501" y1="288.9863" x2="283.8501" y2="445.2363">
		<stop  offset="0" style="stop-color:#F6871F"/>
		<stop  offset="0.2051" style="stop-color:#F58120"/>
		<stop  offset="0.5378" style="stop-color:#F37021"/>
		<stop  offset="0.9544" style="stop-color:#F04E23"/>
		<stop  offset="1" style="stop-color:#F04923"/>
	</linearGradient>
	<polygon fill="url(#SVGID_4_)" points="283.85,481.484 283.851,481.473 283.85,481.476 283.85,481.492 	"/>
	<linearGradient id="SVGID_5_" gradientUnits="userSpaceOnUse" x1="283.8491" y1="418.9927" x2="283.8491" y2="543.9927">
		<stop  offset="0" style="stop-color:#F6871F"/>
		<stop  offset="0.2051" style="stop-color:#F58120"/>
		<stop  offset="0.5378" style="stop-color:#F37021"/>
		<stop  offset="0.9544" style="stop-color:#F04E23"/>
		<stop  offset="1" style="stop-color:#F04923"/>
	</linearGradient>
	<polygon fill="url(#SVGID_5_)" points="283.85,481.492 283.849,481.496 283.849,481.508 	"/>
	<linearGradient id="SVGID_6_" gradientUnits="userSpaceOnUse" x1="209.7363" y1="297.5962" x2="209.7363" y2="487.1031">
		<stop  offset="0" style="stop-color:#F6871F"/>
		<stop  offset="0.2051" style="stop-color:#F58120"/>
		<stop  offset="0.5378" style="stop-color:#F37021"/>
		<stop  offset="0.9544" style="stop-color:#F04E23"/>
		<stop  offset="1" style="stop-color:#F04923"/>
	</linearGradient>
	<polygon fill="url(#SVGID_6_)" points="209.737,482.749 209.737,482.75 209.735,482.776 	"/>
	<linearGradient id="SVGID_7_" gradientUnits="userSpaceOnUse" x1="205.8867" y1="298.0093" x2="205.8867" y2="487.0927">
		<stop  offset="0" style="stop-color:#F6871F"/>
		<stop  offset="0.2051" style="stop-color:#F58120"/>
		<stop  offset="0.5378" style="stop-color:#F37021"/>
		<stop  offset="0.9544" style="stop-color:#F04E23"/>
		<stop  offset="1" style="stop-color:#F04923"/>
	</linearGradient>
	<path fill="url(#SVGID_7_)" d="M209.737,341.267c-0.09-2.25-1.863-4.011-4.04-4.011c-2.189,0-3.964,1.764-4.042,4.013
		c0,0.002-2.963,95.772-2.963,95.772l2.965,45.727c0.076,2.228,1.851,3.987,4.04,3.987c2.177,0,3.95-1.755,4.04-4.005l3.344-45.709
		L209.737,341.267z"/>
	<linearGradient id="SVGID_8_" gradientUnits="userSpaceOnUse" x1="228.0527" y1="297.5811" x2="228.0527" y2="487.1037">
		<stop  offset="0" style="stop-color:#F6871F"/>
		<stop  offset="0.2051" style="stop-color:#F58120"/>
		<stop  offset="0.5378" style="stop-color:#F37021"/>
		<stop  offset="0.9544" style="stop-color:#F04E23"/>
		<stop  offset="1" style="stop-color:#F04923"/>
	</linearGradient>
	<polygon fill="url(#SVGID_8_)" points="228.054,482.466 228.053,482.469 228.052,482.492 	"/>
	<linearGradient id="SVGID_9_" gradientUnits="userSpaceOnUse" x1="223.8164" y1="298.0093" x2="223.8164" y2="487.0939">
		<stop  offset="0" style="stop-color:#F6871F"/>
		<stop  offset="0.2051" style="stop-color:#F58120"/>
		<stop  offset="0.5378" style="stop-color:#F37021"/>
		<stop  offset="0.9544" style="stop-color:#F04E23"/>
		<stop  offset="1" style="stop-color:#F04923"/>
	</linearGradient>
	<path fill="url(#SVGID_9_)" d="M228.054,338.045c-0.078-2.46-2.014-4.385-4.41-4.385c-2.404,0-4.342,1.927-4.412,4.388
		l-2.744,98.997l2.746,45.443c0.068,2.434,2.006,4.357,4.41,4.357c2.396,0,4.33-1.924,4.41-4.377l3.092-45.419L228.054,338.045z"/>
	<linearGradient id="SVGID_10_" gradientUnits="userSpaceOnUse" x1="135.5757" y1="298.0093" x2="135.5757" y2="487.0933">
		<stop  offset="0" style="stop-color:#F6871F"/>
		<stop  offset="0.2051" style="stop-color:#F58120"/>
		<stop  offset="0.5378" style="stop-color:#F37021"/>
		<stop  offset="0.9544" style="stop-color:#F04E23"/>
		<stop  offset="1" style="stop-color:#F04923"/>
	</linearGradient>
	<path fill="url(#SVGID_10_)" d="M135.317,485.62c1.332,0,2.43-1.079,2.551-2.504l4.363-46.117l-4.363-47.677
		c-0.121-1.425-1.219-2.502-2.551-2.502c-1.35,0-2.449,1.08-2.557,2.511l-3.841,47.668l3.841,46.117
		C132.868,484.541,133.968,485.62,135.317,485.62z"/>
	<linearGradient id="SVGID_11_" gradientUnits="userSpaceOnUse" x1="278.4448" y1="298.0093" x2="278.4448" y2="487.0939">
		<stop  offset="0" style="stop-color:#F6871F"/>
		<stop  offset="0.2051" style="stop-color:#F58120"/>
		<stop  offset="0.5378" style="stop-color:#F37021"/>
		<stop  offset="0.9544" style="stop-color:#F04E23"/>
		<stop  offset="1" style="stop-color:#F04923"/>
	</linearGradient>
	<path fill="url(#SVGID_11_)" d="M286.178,437.072l-2.327-110.619c-0.033-1.896-1.013-3.571-2.475-4.562
		c-0.878-0.595-1.929-0.942-3.053-0.942c-1.093,0-2.114,0.332-2.977,0.896c-1.504,0.984-2.519,2.683-2.549,4.612l-0.02,1.043
		l-2.066,109.536c0,0.066,2.086,44.464,2.086,44.464c0.001,0.063,0.009,0.126,0.013,0.188c0.062,1.241,0.533,2.385,1.286,3.285
		c1.018,1.219,2.54,2,4.227,2c1.498,0,2.867-0.617,3.867-1.614c1-0.994,1.631-2.368,1.66-3.885l0.23-4.395L286.178,437.072z"/>
	<linearGradient id="SVGID_12_" gradientUnits="userSpaceOnUse" x1="152.9419" y1="298.0093" x2="152.9419" y2="487.0936">
		<stop  offset="0" style="stop-color:#F6871F"/>
		<stop  offset="0.2051" style="stop-color:#F58120"/>
		<stop  offset="0.5378" style="stop-color:#F37021"/>
		<stop  offset="0.9544" style="stop-color:#F04E23"/>
		<stop  offset="1" style="stop-color:#F04923"/>
	</linearGradient>
	<path fill="url(#SVGID_12_)" d="M155.625,392.767c-0.112-1.63-1.37-2.869-2.925-2.869c-1.569,0-2.826,1.241-2.924,2.888
		l-3.625,44.218l3.625,46.495c0.098,1.638,1.354,2.881,2.924,2.881c1.554,0,2.811-1.241,2.925-2.883l4.107-46.493L155.625,392.767z"
		/>
	<linearGradient id="SVGID_13_" gradientUnits="userSpaceOnUse" x1="170.4502" y1="298.0093" x2="170.4502" y2="487.0932">
		<stop  offset="0" style="stop-color:#F6871F"/>
		<stop  offset="0.2051" style="stop-color:#F58120"/>
		<stop  offset="0.5378" style="stop-color:#F37021"/>
		<stop  offset="0.9544" style="stop-color:#F04E23"/>
		<stop  offset="1" style="stop-color:#F04923"/>
	</linearGradient>
	<path fill="url(#SVGID_13_)" d="M170.228,361.817c-1.759,0-3.208,1.434-3.297,3.263c0,0.002-3.404,71.942-3.404,71.942
		l3.404,46.492c0.089,1.814,1.538,3.25,3.297,3.25c1.744,0,3.191-1.436,3.295-3.26v0.014l3.852-46.496l-3.852-71.945
		C173.419,363.248,171.972,361.817,170.228,361.817z"/>
	<linearGradient id="SVGID_14_" gradientUnits="userSpaceOnUse" x1="187.8281" y1="298.0093" x2="187.8281" y2="487.0933">
		<stop  offset="0" style="stop-color:#F6871F"/>
		<stop  offset="0.2051" style="stop-color:#F58120"/>
		<stop  offset="0.5378" style="stop-color:#F37021"/>
		<stop  offset="0.9544" style="stop-color:#F04E23"/>
		<stop  offset="1" style="stop-color:#F04923"/>
	</linearGradient>
	<path fill="url(#SVGID_14_)" d="M191.288,483.459l-0.002,0.025l3.602-46.212l-3.6-88.395c-0.094-2.04-1.705-3.635-3.666-3.635
		c-1.975,0-3.586,1.596-3.672,3.635c0,0.005-3.182,88.395-3.182,88.395l3.186,46.203c0.082,2.021,1.693,3.617,3.668,3.617
		C189.583,487.093,191.194,485.497,191.288,483.459z"/>
	<linearGradient id="SVGID_15_" gradientUnits="userSpaceOnUse" x1="155.6255" y1="448.3389" x2="155.6255" y2="518.6514">
		<stop  offset="0" style="stop-color:#F6871F"/>
		<stop  offset="0.2051" style="stop-color:#F58120"/>
		<stop  offset="0.5378" style="stop-color:#F37021"/>
		<stop  offset="0.9544" style="stop-color:#F04E23"/>
		<stop  offset="1" style="stop-color:#F04923"/>
	</linearGradient>
	<polygon fill="url(#SVGID_15_)" points="155.626,483.495 155.625,483.497 155.625,483.504 	"/>
	<linearGradient id="SVGID_16_" gradientUnits="userSpaceOnUse" x1="296.7104" y1="298.0093" x2="296.7104" y2="487.0939">
		<stop  offset="0" style="stop-color:#F6871F"/>
		<stop  offset="0.2051" style="stop-color:#F58120"/>
		<stop  offset="0.5378" style="stop-color:#F37021"/>
		<stop  offset="0.9544" style="stop-color:#F04E23"/>
		<stop  offset="1" style="stop-color:#F04923"/>
	</linearGradient>
	<path fill="url(#SVGID_16_)" d="M299.611,311.404c-0.882-0.534-1.907-0.847-3-0.847c-1.406,0-2.703,0.505-3.721,1.346
		c-1.309,1.08-2.156,2.713-2.18,4.536l-0.012,0.607l-2.406,120.037l1.227,22.188l1.192,21.595c0.042,3.196,2.687,5.835,5.9,5.835
		c3.203,0,5.848-2.639,5.893-5.881v0.05l0,0l2.625-43.787v-0.002l-2.625-120.651C302.475,314.299,301.313,312.433,299.611,311.404z"
		/>
	<linearGradient id="SVGID_17_" gradientUnits="userSpaceOnUse" x1="85.1597" y1="298.0093" x2="85.1597" y2="487.0934">
		<stop  offset="0" style="stop-color:#F6871F"/>
		<stop  offset="0.2051" style="stop-color:#F58120"/>
		<stop  offset="0.5378" style="stop-color:#F37021"/>
		<stop  offset="0.9544" style="stop-color:#F04E23"/>
		<stop  offset="1" style="stop-color:#F04923"/>
	</linearGradient>
	<path fill="url(#SVGID_17_)" d="M84.868,462.455c0.883,0,1.598-0.693,1.742-1.691l3.771-23.778l-3.771-24.189
		c-0.143-0.997-0.859-1.694-1.742-1.694c-0.908,0-1.626,0.702-1.746,1.703l-3.184,24.18l3.184,23.769
		C83.242,461.755,83.96,462.455,84.868,462.455z"/>
	<linearGradient id="SVGID_18_" gradientUnits="userSpaceOnUse" x1="101.2598" y1="298.0083" x2="101.2598" y2="487.0943">
		<stop  offset="0" style="stop-color:#F6871F"/>
		<stop  offset="0.2051" style="stop-color:#F58120"/>
		<stop  offset="0.5378" style="stop-color:#F37021"/>
		<stop  offset="0.9544" style="stop-color:#F04E23"/>
		<stop  offset="1" style="stop-color:#F04923"/>
	</linearGradient>
	<path fill="url(#SVGID_18_)" d="M100.966,476.988c0.918,0,1.66-0.724,1.807-1.757l4.873-38.246l-4.871-39.101
		c-0.148-1.038-0.891-1.758-1.809-1.758c-0.925,0-1.687,0.74-1.811,1.76c0,0.004-4.281,39.099-4.281,39.099l4.281,38.237
		C99.279,476.246,100.041,476.988,100.966,476.988z"/>
	<linearGradient id="SVGID_19_" gradientUnits="userSpaceOnUse" x1="118.3467" y1="298.0093" x2="118.3467" y2="487.0929">
		<stop  offset="0" style="stop-color:#F6871F"/>
		<stop  offset="0.2051" style="stop-color:#F58120"/>
		<stop  offset="0.5378" style="stop-color:#F37021"/>
		<stop  offset="0.9544" style="stop-color:#F04E23"/>
		<stop  offset="1" style="stop-color:#F04923"/>
	</linearGradient>
	<path fill="url(#SVGID_19_)" d="M118.071,483.828c1.129,0,2.045-0.896,2.179-2.131l4.618-44.708l-4.615-46.394
		c-0.137-1.239-1.053-2.135-2.182-2.135c-1.15,0-2.068,0.898-2.184,2.137c0,0.003-4.062,46.392-4.062,46.392l4.062,44.699
		C116.003,482.933,116.921,483.828,118.071,483.828z"/>
	<linearGradient id="SVGID_20_" gradientUnits="userSpaceOnUse" x1="411.4492" y1="298.0093" x2="411.4492" y2="486.8306">
		<stop  offset="0" style="stop-color:#F7941E"/>
		<stop  offset="0" style="stop-color:#F78E1E"/>
		<stop  offset="0" style="stop-color:#F6871F"/>
		<stop  offset="0.2058" style="stop-color:#F58120"/>
		<stop  offset="0.5413" style="stop-color:#F36F21"/>
		<stop  offset="0.9627" style="stop-color:#F04D23"/>
		<stop  offset="1" style="stop-color:#F04923"/>
	</linearGradient>
	<path fill="url(#SVGID_20_)" d="M461.791,379.976c-7.338,0-14.34,1.488-20.715,4.158c-4.262-48.262-44.734-86.125-94.105-86.125
		c-12.082,0-23.857,2.375-34.26,6.399c-4.043,1.566-5.115,3.171-5.154,6.297c0,0.002,0,169.973,0,169.973
		c0.043,3.277,2.586,5.825,5.785,6.145c0.137,0.015,148.449,0,148.449,0c29.576,0,53.551-23.709,53.551-53.29
		C515.342,403.953,491.367,379.976,461.791,379.976z"/>
	<path fill="#F04923" d="M122.696,519.047c-6.281-1.476-7.975-2.265-7.975-4.752c0-1.75,1.412-3.563,5.653-3.563
		c3.622,0,6.451,1.476,8.994,4.075l5.718-5.545c-3.737-3.897-8.261-6.221-14.426-6.221c-7.809,0-14.141,4.415-14.141,11.602
		c0,7.8,5.091,10.122,12.387,11.812c7.467,1.699,8.824,2.837,8.824,5.38c0,2.999-2.211,4.3-6.904,4.3
		c-3.789,0-7.348-1.301-10.125-4.529l-5.713,5.092c2.999,4.412,8.771,7.183,15.386,7.183c10.804,0,15.558-5.087,15.558-12.612
		C135.933,522.667,128.977,520.52,122.696,519.047z M159.134,503.041c-10.803,0-17.194,8.367-17.194,20.422
		s6.392,20.417,17.194,20.417c10.8,0,17.195-8.362,17.195-20.417S169.934,503.041,159.134,503.041z M159.134,536.018
		c-6.395,0-9.054-5.484-9.054-12.555c0-7.074,2.659-12.556,9.054-12.556c6.393,0,9.047,5.481,9.047,12.556
		C168.181,530.533,165.526,536.018,159.134,536.018z M208.284,525.895c0,6.333-3.11,10.24-8.141,10.24
		c-5.035,0-8.091-4.018-8.091-10.35v-22.124h-7.919v22.233c0,11.538,6.451,17.985,16.01,17.985c10.064,0,16.06-6.623,16.06-18.095
		v-22.124h-7.919V525.895z M250.372,520.408c0,2.205,0.11,7.183,0.11,8.657c-0.507-1.019-1.81-3.005-2.769-4.476l-14.034-20.929
		h-7.578v39.599h7.809v-17.424c0-2.205-0.116-7.182-0.116-8.654c0.514,1.017,1.814,2.996,2.77,4.473l14.541,21.605h7.075v-39.599
		h-7.808V520.408z M280.742,503.661H268.36v39.599h11.819c10.181,0,20.255-5.886,20.255-19.797
		C300.435,508.978,292.058,503.661,280.742,503.661z M280.18,535.567h-3.905v-24.208h4.191c8.371,0,11.822,4.008,11.822,12.104
		C292.288,530.705,288.495,535.567,280.18,535.567z M324.925,510.907c3.562,0,5.828,1.583,7.241,4.295l7.347-3.396
		c-2.486-5.146-7.01-8.766-14.477-8.766c-10.347,0-17.587,8.367-17.587,20.422c0,12.498,6.946,20.417,17.306,20.417
		c7.186,0,11.935-3.337,14.651-8.939l-6.677-3.963c-2.091,3.511-4.187,5.04-7.749,5.04c-5.943,0-9.396-5.434-9.396-12.555
		C315.584,516.112,318.99,510.907,324.925,510.907z M354.298,503.661h-7.924v39.599h23.81v-7.807h-15.886V503.661z M391.04,503.041
		c-10.809,0-17.196,8.367-17.196,20.422s6.388,20.417,17.196,20.417c10.802,0,17.198-8.362,17.198-20.417
		S401.842,503.041,391.04,503.041z M391.04,536.018c-6.396,0-9.055-5.484-9.055-12.555c0-7.074,2.658-12.556,9.055-12.556
		c6.387,0,9.041,5.481,9.041,12.556C400.081,530.533,397.427,536.018,391.04,536.018z M440.193,525.895
		c0,6.333-3.102,10.24-8.138,10.24c-5.039,0-8.094-4.018-8.094-10.35v-22.124h-7.92v22.233c0,11.538,6.452,17.985,16.014,17.985
		c10.065,0,16.065-6.623,16.065-18.095v-22.124h-7.928V525.895z M470.405,503.661h-12.391v39.599h11.815
		c10.198,0,20.255-5.886,20.255-19.797C490.085,508.978,481.722,503.661,470.405,503.661z M469.83,535.567h-3.896v-24.208h4.186
		c8.363,0,11.815,4.008,11.815,12.104C481.936,530.705,478.151,535.567,469.83,535.567z"/>
</g>
</svg>
